<svg width="32" height="48" fill="none" xmlns="http://www.w3.org/2000/svg"><path fill-rule="evenodd" clip-rule="evenodd" d="M23.4 23.65a1.87 1.87 0 0 1-.93 1.34c-.5.32-.93.48-1.36.64-.93.32-1.91.64-2.95 1.01-1.1.38-2.07.75-2.95 1.02-1.09.37-2.12.7-3.1 1.07-.75.31-1.44.73-2.08 1.22a8.8 8.8 0 0 0-1.52 1.82c-.44.75-.71 1.7-.71 2.83 0 2.24.54 3.95 1.63 5.02 1.1 1.12 3.11 1.65 6.1 1.65 3.06 0 5.14-.58 6.23-1.76 1.09-1.17 1.63-2.83 1.63-4.96v-10.9ZM15.54 0c5.35 0 9.28 1.02 11.78 3.1a9.58 9.58 0 0 1 3.77 7.74V37.2c0 1.07-.22 2.25-.6 3.53a7.59 7.59 0 0 1-2.35 3.52 13.1 13.1 0 0 1-4.74 2.67c-2.02.7-4.64 1.07-7.86 1.07-3.21 0-5.83-.37-7.85-1.07-2.01-.7-3.6-1.6-4.74-2.67A8.55 8.55 0 0 1 .6 40.74c-.38-1.28-.6-2.46-.6-3.52V33c0-2.24.6-4.33 1.8-6.14a9.81 9.81 0 0 1 5.07-3.95c1.1-.38 2.35-.75 3.76-1.23 1.42-.48 2.73-.96 4.04-1.39 1.31-.43 2.46-.86 3.43-1.23.6-.24 1.2-.45 1.8-.64l.99-.48c.38-.21.76-.53 1.14-.96.38-.43.71-.9.99-1.44.29-.58.44-1.22.43-1.87v-1.7c0-.63-.13-1.25-.38-1.83a4.2 4.2 0 0 0-1.26-1.76 6.8 6.8 0 0 0-2.4-1.28c-.98-.32-2.28-.48-3.76-.48-3.05 0-5.07.6-6.16 1.82a6.6 6.6 0 0 0-1.58 3.9c0 .31-.27.53-.6.53l-6.65.1a.6.6 0 0 1-.6-.59v-1.54c0-1.5.27-2.89.87-4.22A8.89 8.89 0 0 1 3.71 3.2c1.26-.96 2.9-1.76 4.86-2.3 1.9-.64 4.25-.9 6.98-.9Z" fill="#0A3871"/></svg>