<svg width="336" height="304" fill="none" xmlns="http://www.w3.org/2000/svg"><g clip-path="url(#a)"><path d="M.68 249.84c2.93-1.44 4.17-5.25 7.36-6.25 3.26-1.02 6.89 1 9.87-1.21 1.3-.97 2.27-2.57 3.85-3.15 1.38-.5 2.82.06 4.15.47l3.4 1.05 13.67 4.2c5.18 1.57 10.33 3.17 15.5 4.75.5.16.72-.64.22-.8l-28.36-8.7c-2.21-.66-4.51-1.69-6.8-1.96-1.61-.2-2.89.44-4.02 1.49-1.58 1.46-2.77 2.82-5.06 2.93-1.91.1-3.8-.39-5.7-.09-3.93.61-5.15 4.9-8.47 6.52-.5.28-.08 1 .39.75Z" fill="#E8E8E8"/><path d="M50.4 246.36c1.97.5 3.52-1.47 5.29-2.05a8.62 8.62 0 0 1 7.08.78c.47.27.89-.45.41-.72a9.33 9.33 0 0 0-8.6-.53c-1.2.53-2.57 2.05-3.96 1.72-.52-.14-.74.66-.22.8ZM71.74 244.29a58.85 58.85 0 0 1-7.53-7.4c-.42-.5-.83-1-1.22-1.5-.28-.35-.55-.71-.8-1.07-.44-.44-.44-1 .03-1.6.33.13.85-.2.58-.59a23.6 23.6 0 0 1-3.74-7.45l-.5.5c.92.25 1.58.71 2.08 1.49.28.44 1 .05.72-.42A117.42 117.42 0 0 1 51.3 203.8l-.69.42c11.6 11.37 16.85 27.2 26.62 39.93.33.41 1.05 0 .72-.42-9.8-12.78-15.1-28.66-26.76-40.1-.27-.27-.83 0-.69.42 2.57 7.9 5.95 15.47 10.13 22.64l.72-.4a4.21 4.21 0 0 0-2.57-1.89c-.3-.08-.61.2-.5.5a24.8 24.8 0 0 0 3.82 7.65l.58-.58c-.78-.36-1.64 0-1.83.91-.25 1.3 1.33 2.74 2.05 3.65a56.36 56.36 0 0 0 8.3 8.34c.36.33.94-.25.53-.58Z" fill="#E8E8E8"/><path d="M68.83 227.03c-5.1-7.6-9.21-15.74-12.26-24.36-.08.17-.2.33-.28.5.95-.22 1.75.14 2.27.96.28.47.94.06.72-.41-4.29-9.25-8.66-18.89-8.35-29.3l-.78.22a1047.1 1047.1 0 0 1 21.06 46.1c.2.43.91.1.75-.34-1.11-3.31-2.19-6.66-3.3-9.97-.52-1.63-1.08-3.23-1.6-4.86-.36-1.08-1.14-3.42.41-4-.16-.06-.3-.14-.47-.2 2 3.9 3.96 7.79 5.95 11.68.25.47.97.06.72-.41A27.4 27.4 0 0 1 70.71 199c-.28.03-.55.08-.8.1a368.35 368.35 0 0 0 19.92 41.65c.25.47.97.06.72-.41a365.08 365.08 0 0 1-19.84-41.45c-.16-.42-.8-.39-.8.1-.2 4.9.86 9.67 3.07 14.06.25-.13.47-.27.72-.41-2-3.9-3.96-7.79-5.95-11.68-.08-.14-.3-.25-.47-.2-2.77 1.03-1 4.98-.39 6.83 1.44 4.33 2.85 8.7 4.3 13.03l.74-.33a1047.1 1047.1 0 0 0-21.06-46.09c-.2-.39-.77-.16-.77.22-.34 10.55 4.12 20.35 8.46 29.71.25-.13.47-.27.72-.41a2.92 2.92 0 0 0-3.2-1.35c-.23.05-.37.3-.28.5a110.4 110.4 0 0 0 12.34 24.54c.27.47 1 .06.69-.38ZM14.15 280.4c9.58-4.6 19.68-9.3 30.6-8.2 5.18.53 10.19 2.02 15.34 2.68 2.6.33 5.23.47 7.83.17 2.43-.3 4.73-1.19 7.1-1.71 3.08-.7 5.87.02 8.84.85 2.43.67 4.84 1.22 7.36.64.52-.11.3-.91-.23-.8-5.03 1.18-9.76-2.43-14.86-1.72-2.51.36-4.87 1.36-7.36 1.8a27.5 27.5 0 0 1-7.96.05c-5.23-.6-10.33-2.15-15.58-2.73-5.18-.58-10.3.08-15.25 1.52-5.65 1.66-10.99 4.2-16.24 6.74-.5.22-.06.94.41.71ZM70.32 303.3c3.24-1.38 6.42-2.9 9.5-4.61 1.6-.92 3.18-1.85 4.75-2.85 1.42-.91 2.83-2.2 4.38-2.87 1.74-.72 4.37.63 6.11 1.16 1.86.58 3.71 1.13 5.54 1.71l11.34 3.48c.5.17.72-.63.22-.8l-12.14-3.73-5.82-1.8c-1.49-.46-3.37-1.43-4.95-1.04-1.47.36-2.8 1.63-4.04 2.46a94.94 94.94 0 0 1-15.3 8.15c-.5.21-.06.93.41.74ZM104.75 304.15l6.3-3.17c1.94-1 4.02-2.32 6.23-2.52 2.24-.22 3.99 1.25 5.92 2.1 1.64.72 3.4 1.14 5.18 1.25 4.15.22 8.02-1.85 12.15-1.63 3.29.19 6.6 2.9 9.85 1.19.47-.25.05-.97-.42-.72-2.02 1.07-4.2.02-6.2-.61a12.2 12.2 0 0 0-5.17-.6c-4.26.43-8.16 2.23-12.54 1.2-3.62-.82-6.39-3.83-10.29-2.7-1.8.52-3.49 1.52-5.15 2.35l-6.3 3.17c-.45.22-.03.94.44.7Z" fill="#E8E8E8"/><path d="M120.9 298.16a25.48 25.48 0 0 1-6.8-9.14c-.17-.39-.33-.75-.47-1.13-.25-.42-.14-.8.33-1.16l.75-.33a33.45 33.45 0 0 1-5.6-14.91l-.71.3 1.52 1.93c.3.39.89-.1.67-.5a58.12 58.12 0 0 1-7.45-28.08l-.72.3a13.66 13.66 0 0 1 4.2 5.64l.76-.33a21.3 21.3 0 0 1-1.33-14.56h-.8l16.98 48.6c.17.5.97.28.8-.22a77.38 77.38 0 0 1-4.17-25.84l-.72.3a9.66 9.66 0 0 1 3.13 5.66c.08.47.83.36.8-.1-.08-1.7-.2-3.4-.28-5.09-.22.11-.41.25-.63.36 1.46.94 1.74 3.42 2.21 4.97l1.52 5c1.03 3.42 2.08 6.82 3.1 10.24l6.23 20.5c.16.5.97.3.8-.23-2.24-7.34-4.46-14.72-6.7-22.06l-3.26-10.77-1.66-5.52c-.36-1.14-.78-2.16-1.8-2.82-.25-.17-.64.06-.64.36.09 1.68.2 3.4.28 5.08l.8-.11a10.2 10.2 0 0 0-3.35-6.05c-.27-.25-.69-.08-.72.3a78.08 78.08 0 0 0 4.21 26.07c.28-.08.53-.13.8-.22-5.67-16.2-11.31-32.39-16.99-48.6-.14-.36-.69-.41-.8 0a22.3 22.3 0 0 0 1.41 15.19c.2.41.94.11.75-.33a14.2 14.2 0 0 0-4.43-6c-.28-.22-.72-.08-.72.3a58.82 58.82 0 0 0 7.56 28.5l.66-.49-1.52-1.93c-.22-.28-.75-.06-.72.3a34 34 0 0 0 5.7 15.33c.28.38.83.13.75-.33-.14-.78-1.06-1.05-1.7-.58-1.15.82-.02 2.79.4 3.72a26.27 26.27 0 0 0 6.83 9.09c.58.3 1.16-.28.75-.6Z" fill="#E8E8E8"/><path d="M91.96 236.22c-.36-5.19 9.08-2.2 11.7-1.71l12.93 2.4 25.84 4.8c.53.12.75-.68.23-.8l-29.61-5.52c-4.84-.9-9.69-1.82-14.53-2.7-1.74-.33-3.76-.7-5.4.22a3.46 3.46 0 0 0-1.96 3.31c0 .53.86.53.8 0Z" fill="#E8E8E8"/><path d="M136.7 240.8c2.89.31 4.66-2.42 6.9-3.75 1.9-1.1 3.57-.25 5.53.14 2.19.44 4.43.5 6.64.22.53-.06.53-.88 0-.83-2.49.3-4.98.2-7.41-.41-1.47-.39-2.8-.86-4.26-.28-2.6 1-4.38 4.42-7.4 4.09-.52-.06-.52.77 0 .83ZM189.48 293.9c6.64-2.31 13.33-4.63 20.2-6.29a82.35 82.35 0 0 1 21.75-2.18c7.27.22 14.5 1.05 21.75 1.71 7.27.7 14.55 1.36 21.83 2.05 8.36.77 16.74 1.54 25.1 2.34.52.06.52-.77 0-.82l-44.78-4.17c-14.36-1.33-28.8-3.3-43.1-.34-7.87 1.63-15.45 4.28-23 6.9-.47.17-.25.97.25.8ZM218.72 266.74c4.96-1.05 9.6-3.12 14.28-5 5.01-1.99 10.07-3.37 15.44-3.84 5.43-.47 10.88-.2 16.27.14 5.43.33 10.85.72 16.3 1.1 6.34.47 12.7 1 19.04 1.55.53.05.53-.77 0-.83-11.23-1-22.47-1.85-33.73-2.57-10.71-.69-21.25-.96-31.46 2.82-5.43 2.01-10.68 4.58-16.38 5.8-.47.14-.28.94.25.83ZM282.5 234.9c3.96-3.01 8.14-5.97 12.57-8.23a18.59 18.59 0 0 1 6.92-2.18c2.63-.23 5.25.3 7.83.63 5.23.64 10.49 1.02 15.74 1.35 3.49.22 7.92.72 10.38-2.31.33-.42-.25-1-.58-.59-2.8 3.46-8.69 2.16-12.5 1.91-5.27-.36-10.47-.86-15.7-1.52-2.24-.28-4.45-.5-6.7-.08a21.07 21.07 0 0 0-6.25 2.32 90.33 90.33 0 0 0-12.15 8c-.38.31.03 1.03.45.7ZM130.18 230.34c3.93-2.95 7.88-5.88 11.81-8.84 3.77-2.81 7.28-5.77 12.2-6.02 4.65-.22 9.41.3 14.03.7 4.99.4 9.94.96 14.86 1.65 4.16.58 9.1 2.13 13.04-.03.47-.25.05-.96-.42-.72-2.02 1.11-4.26 1.11-6.5.83-2.4-.3-4.81-.71-7.22-1.05-4.65-.63-9.33-1.16-14.03-1.54-4.62-.39-9.41-.94-14.03-.66-4.29.24-7.47 2.45-10.82 4.97-4.46 3.31-8.88 6.65-13.34 9.97-.41.35 0 1.07.42.74Z" fill="#E8E8E8"/><path d="M285.86 259.53a35.42 35.42 0 0 1 1.96-7.84c.2-.5.72-1.33 1.44-1.14.36.11.52 1.36.55 1.6.06.45.67.59.8.12 1.3-4.23 2.8-8.87 6.78-11.33-.22-.1-.41-.24-.63-.35l-.03 2.1c0 .38.58.57.77.22 2.47-5.11 5.15-10.47 10.13-13.56-.2-.17-.41-.3-.6-.47-2.5 6.43-5.4 12.7-8.7 18.78-.22.38.34.88.67.5 1.85-2.22 3.73-4.43 6.17-6.03l-.58-.58a220.33 220.33 0 0 1-10.1 18.89c-.28.47.44.88.72.41a229.04 229.04 0 0 0 10.1-18.88c.16-.34-.2-.83-.58-.58-2.5 1.65-4.43 3.89-6.34 6.15l.66.5a163.55 163.55 0 0 0 8.78-18.97c.13-.33-.34-.63-.61-.47-5.12 3.18-7.89 8.62-10.44 13.86.25.09.53.14.78.22l.03-2.1c0-.3-.36-.52-.64-.35-4.15 2.56-5.78 7.37-7.14 11.81.28.03.56.09.8.12-.13-1.41-1.4-3.81-2.96-2.02-.77.91-1.08 2.4-1.4 3.54-.56 1.82-.95 3.7-1.23 5.6-.02.55.75.77.84.25ZM92.52 212.92c2.15-1.16 4.34-2.32 6.72-2.96 2.52-.66 5-.44 7.53-.1l15 1.98c.52.08.52-.75 0-.83-5.35-.72-10.71-1.5-16.05-2.13-2.47-.3-4.82-.3-7.2.4-2.27.65-4.37 1.79-6.45 2.89-.47.3-.02 1 .45.75ZM260.84 25.6c2-1.68 4.79-1.35 6.97-.27 1.66.8 3.02 2.43 4.96 2.51 1.8.06 3.29-1.16 4.81-1.96a4.77 4.77 0 0 1 3.24-.63c1.24.25 2.32.96 3.46 1.46 3.73 1.63 6.22-.63 9.38-2.43.88-.5 1.82-.94 2.85-1.02 1.3-.11 2.46.47 3.62.97 1.83.77 3.21 1.07 5.07.33a6.96 6.96 0 0 1 5.37.05c1.21.45 2.38 1 3.65 1.27 1.9.45 3.95.33 5.4-1.13.38-.39-.23-.97-.59-.58-1.85 1.88-4.67 1-6.8.17-2.16-.83-4.38-1.71-6.67-.86-1.44.55-2.41.94-3.96.42-1.05-.36-2.02-.94-3.1-1.25a6.07 6.07 0 0 0-4.65.53c-1.71.85-3.2 2.2-5 2.92-2.39.94-4.24-.3-6.4-1.21a5.58 5.58 0 0 0-4.65-.08c-1.9.85-3.76 2.73-6 1.93-1.2-.41-2.13-1.38-3.21-1.99-.91-.5-1.91-.85-2.94-1.05a6.38 6.38 0 0 0-5.42 1.27c-.39.42.22 1 .61.64ZM270.8 44.47c.53 0 .53-.83 0-.83-.52 0-.52.83 0 .83ZM276.34 47.48c1.3-2.35 4.37-1.22 6.28-.44 1.9.77 3.62 1.24 5.64.55 1.66-.58 3.16-1.69 4.87-2.07 2.38-.55 3.74 1.46 5.9 1.93 3.37.75 6.78-3.01 9.96-1.44.88.45 1.5 1.03 2.54.94.97-.05 1.86-.52 2.8-.74 2.63-.61 5.37-.14 7.72 1.16.47.25.88-.47.41-.72-1.49-.83-3.1-1.33-4.78-1.5-.86-.07-1.75-.05-2.6.1-1.03.13-1.97.57-2.96.76-1.36.25-1.94-.41-3.05-.88a4.23 4.23 0 0 0-1.74-.3c-1.39.05-2.71.63-3.99 1.1-1.63.6-3.37 1.19-5.03.36-1.41-.69-2.52-1.74-4.18-1.74-3.43.03-5.84 3.31-9.46 2.32-2.69-.75-7-3.37-9 .17-.3.5.42.9.67.44ZM249.5 80.53c1.96-1.54 4.2-1.46 6.36-.47 1.19.56 2.46 1.08 3.7.33.73-.44 1.2-1.13 2.06-1.38a5.23 5.23 0 0 1 2.76.14c1.58.39 3.1 1.08 4.73 1.19 1.94.14 3.71-.7 5.6-.88 2.01-.2 3.43 1.02 5.3 1.3 1.83.24 3.24-1.22 5.07-.95 2.21.34 4.4 1.08 6.59 1.63.52.14.74-.66.22-.8-2.3-.58-4.68-1.46-7.03-1.7-2-.23-3.43 1.4-5.43.8-1.85-.56-3.18-1.36-5.17-1.09-2.13.3-4.07 1.14-6.25.67-1.7-.36-3.32-1.16-5.07-1.27-.63-.03-1.3.02-1.9.27-.78.3-1.2.94-1.92 1.36-1.66.96-3.9-1.08-5.67-1.22a6.54 6.54 0 0 0-4.56 1.46c-.42.36.19.94.6.61ZM90.86 20.28c.52 0 .52-.83 0-.83-.53 0-.53.83 0 .83ZM93.3 20.91c.49-2.45 3.75-.88 4.94-.14 1.36.86 2.8 1.63 4.46 1.16 1.8-.52 3.02-2.07 5-2.18 1.89-.08 3.72.78 5.49 1.33 1.52.47 3.12.8 4.7.41 1.86-.44 3.43-1.74 5.31-2.07 3.71-.63 7.06 2.38 10.82 1.22.5-.17.3-.97-.22-.8-3.93 1.24-7.66-2.24-11.65-1-2.05.64-3.76 2.07-6 1.99-2.08-.08-3.96-1.08-5.92-1.57-1.55-.4-3.13-.5-4.63.19-.85.39-1.6 1.02-2.46 1.44-1.4.66-2.6.27-3.87-.45-1.39-.8-2.58-1.74-4.26-1.6-1.2.08-2.24.7-2.47 1.9-.13.48.67.7.75.17ZM95.8 182.15c3.3-1.38 6.62 1.08 9.94 1.25 1.72.08 3.38-.34 5.07-.67 2.13-.41 3.95-.44 6 .42 1.25.52 2.38.85 3.65.36.72-.28 1.33-.75 2.05-1 .8-.27 1.63-.33 2.5-.33 2.95.06 5.91 1.08 8.74-.25.47-.22.05-.94-.42-.72-3.02 1.41-6.36-.13-9.55.2-1.52.16-2.51 1.05-3.92 1.46-1.7.5-3.35-.94-5.01-1.19-3.57-.55-6.95 1.44-10.55.72-2.87-.58-5.78-2.26-8.71-1.02-.47.2-.25 1 .22.77Z" fill="#E8E8E8"/><path d="M35.98 141.48a4.37 4.37 0 1 0 .01-8.74 4.37 4.37 0 0 0 0 8.74ZM290.48 111.49a3.07 3.07 0 1 0 0-6.14 3.07 3.07 0 0 0 0 6.14ZM262.83 4.7a2.27 2.27 0 1 0 0-4.53 2.27 2.27 0 0 0 0 4.53ZM162.88 201.07a2.82 2.82 0 1 0 .01-5.64 2.82 2.82 0 0 0 0 5.64ZM32.77 41.1a3.23 3.23 0 1 0 .01-6.47 3.23 3.23 0 0 0 0 6.47ZM144.4 154.46a1.85 1.85 0 1 0 0-3.7 1.85 1.85 0 0 0 0 3.7ZM319.4 170.2a2.82 2.82 0 1 0 0-5.64 2.82 2.82 0 0 0 0 5.64ZM11.74 216.75a2.1 2.1 0 1 0 0-4.2 2.1 2.1 0 0 0 0 4.2Z" fill="#0A3871"/><path d="M97.75 53.66c-2.41 4.9-4.85 9.78-7.25 14.67l29.88 39.98c2.58-3.9 5.12-7.87 7.7-11.87 6.05-9.5 11.84-18.89 17.37-28.2l-5.67-14.36-3.65-1.87-35.34.08c-1.05.55-2.05 1.08-3.04 1.57Z" fill="#fff"/><path d="M90.83 68.55c2.1-4.61 4.26-9.2 6.47-13.75.22-.47-.47-.92-.72-.42a622.78 622.78 0 0 0-6.47 13.75c-.22.47.5.91.72.42Z" fill="#000"/><path d="M90.27 69.04a1718.41 1718.41 0 0 0 29.8 39.58c.34.41.92-.17.59-.58-10.08-13.01-19.95-26.13-29.67-39.4-.3-.42-1.02 0-.72.4ZM97.5 54.33c1.16-.61 2.3-1.25 3.46-1.85.47-.25.05-.97-.42-.72-1.16.6-2.3 1.24-3.46 1.85-.5.27-.05.96.42.72Z" fill="#000"/><path d="M101.65 52.53h25.93c.52 0 .52-.83 0-.83h-25.93c-.53 0-.53.83 0 .83ZM145.84 68.16a646.95 646.95 0 0 0-5.4-13.75c-.2-.5-1-.28-.8.22 1.85 4.56 3.65 9.14 5.4 13.75.19.5 1 .28.8-.22Z" fill="#000"/><path d="M144.93 68.58a1884.55 1884.55 0 0 1-24.83 39.48c-.3.45.42.86.72.42 8.44-13.06 16.72-26.2 24.83-39.49.27-.44-.45-.88-.72-.41ZM139.94 53.55c-.96-.6-1.93-1.24-2.9-1.85-.44-.27-.86.42-.42.72.97.6 1.94 1.24 2.91 1.85.47.3.88-.41.41-.72Z" fill="#000"/><path d="M136.1 51.62h-21.64c-.53 0-.53.83 0 .83h21.64c.52 0 .52-.83 0-.83ZM91.16 68.96l14.86-6.38c.5-.22.06-.9-.41-.71l-14.86 6.37c-.47.23-.06.94.41.72ZM97.64 54.08c3.04.47 6.03 1.13 8.99 1.96.52.14.75-.66.22-.8a71.47 71.47 0 0 0-9-1.96c-.52-.09-.77.71-.21.8Z" fill="#000"/><path d="M106.4 55.9a80.8 80.8 0 0 1 1.75 6.27c.11.52.91.3.8-.22-.5-2.13-1.08-4.2-1.74-6.27-.17-.5-.97-.3-.8.22Z" fill="#000"/><path d="M107.68 55.98h22.22c.53 0 .53-.83 0-.83h-22.22c-.53 0-.53.83 0 .83Z" fill="#000"/><path d="m129.54 56.15-.83 4.58c-.08.53.72.75.8.22l.83-4.58c.09-.52-.72-.75-.8-.22ZM108.6 62.22h19.45c.52 0 .52-.82 0-.82h-19.46c-.52 0-.52.82 0 .82ZM130.7 55.98l9.02-1.9c.53-.11.3-.91-.22-.8l-9.02 1.9c-.52.11-.3.91.22.8Z" fill="#000"/><path d="M129.32 61.98c2.8.44 5.4 2.01 7.94 3.2l8.1 3.81c.48.22.92-.5.42-.72l-8.6-4.03c-2.44-1.16-4.96-2.62-7.64-3.07-.53-.08-.75.72-.22.8ZM108.84 63.5c3.6 14.8 7.17 29.62 10.77 44.43.14.52.9.3.8-.23-3.6-14.8-7.17-29.63-10.77-44.43-.13-.52-.94-.3-.8.22Z" fill="#000"/><path d="M128.16 64.49a518.38 518.38 0 0 0-8.33 43.16c-.08.52.72.74.8.22a520.56 520.56 0 0 1 8.33-43.16c.14-.53-.67-.75-.8-.22ZM128.43 36.85a29.78 29.78 0 0 0 2.05-9.94c.03-.53-.8-.53-.83 0-.11 3.34-.8 6.6-2.02 9.72-.2.5.61.69.8.22ZM134.1 37.4a46.21 46.21 0 0 1 9-7.9c.44-.3.03-1.02-.42-.72a46.19 46.19 0 0 0-9.16 8.04c-.36.39.23.97.59.58ZM139.56 42.5a28.96 28.96 0 0 1 10.54-1.12c.53.02.53-.8 0-.83-3.65-.28-7.25.1-10.76 1.16-.5.16-.3.96.22.8Z" fill="#000"/><path d="M81.25 23.15a13.68 13.68 0 0 1-7.66 13.06c-.28.14-.25.55 0 .72 4.51 2.7 6.58 7.68 7.77 12.56.14.53.92.3.8-.22C80.93 44.17 78.72 39 74 36.21v.72a14.5 14.5 0 0 0 8.08-13.78c-.02-.52-.85-.52-.83 0Z" fill="#E8E8E8"/><path d="M81.56 23.15a14.45 14.45 0 0 0 8.08 13.78v-.72c-4.73 2.82-6.95 7.98-8.2 13.12-.13.52.67.74.81.22 1.19-4.92 3.27-9.91 7.8-12.62.25-.14.28-.58 0-.72a13.7 13.7 0 0 1-7.69-13.06c.06-.52-.77-.52-.8 0Z" fill="#E8E8E8"/><path d="M216.29 230.45c.97-.41 2.3-1.02 3.82-1.88 2.54-1.4 3.82-2.12 4.6-3.25.99-1.5.6-2.3 1.9-3.79.2-.25 1.1-1.21 2.3-1.74 2.05-.85 3.96.17 7.14 1.3 2.93 1.05 5.23 1.55 9.82 2.57 1.83.41 4.04.83 7.25 1.82.91.28 1.63.53 2.13.7.06.57.08 2.06-.88 3.41-.45.61-1.06 1.1-2.03 1.55-2.24 1.05-4.37.86-6.17.77-3.87-.16-2.26.4-11.4.56-1.99.02-3.62.02-4.76.02-1.4.97-2.82 1.97-4.26 2.99a227.9 227.9 0 0 0-6.97 5.27l-2.49-10.3Z" fill="#000"/><path d="M204.75 195.1c-2 1.05-2.21 1.44-9.63 7.74-11.56 9.8-12.84 10.32-23.33 19.47-10.04 8.72-11.92 10.9-13.83 13.77-4.76 7.27-5.81 13.34-6.12 16.3-.41 3.97-.97 9.5 2.55 13.86a14.12 14.12 0 0 0 6.06 4.22c2.9 1.1 5.28.97 9.57.67a62.15 62.15 0 0 0 11.76-2 67.15 67.15 0 0 0 11.74-4.52c5.14-2.54 7.36-4.42 14.38-9.14 3.13-2.1 7.75-5.16 13.56-8.7.36-2.76.06-4.91-.25-6.27-.71-3.2-2.18-5.41-3.81-7.84a41.16 41.16 0 0 0-3.49-4.5 61.13 61.13 0 0 0 7.64-6.88 48.16 48.16 0 0 0 7.44-9.88c3.1-5.64 6.2-11.33 4.2-15.25-3.12-6.15-18-6.43-28.44-1.05Z" fill="#fff"/><path opacity=".18" d="M229.54 198.12a70.45 70.45 0 0 1-8.32 14.33c-6.04 7.98-12.13 12.4-21.31 18.94-25.98 18.5-32.96 22.73-32.18 24.5 1.05 2.4 15.69-1.91 17.82-2.55a113 113 0 0 0 34.17-16.81c-1.82-2.8-3.65-5.58-5.48-8.34a38.75 38.75 0 0 0 8.25-7.93 30.55 30.55 0 0 0 7.06-22.15Z" fill="#9B9797"/><path d="M204.64 195.08c-9.85 7.31-19.45 15-28.7 23.03-4.42 3.84-8.85 7.67-13 11.79-3.68 3.64-7.11 7.68-9.19 12.48-2.16 4.97-2.76 10.72-2.24 16.1.44 4.45 2.08 8.92 6.14 11.24 4.27 2.4 9.63 2.15 14.34 1.66a61.48 61.48 0 0 0 16.88-4.17c12.03-4.9 21.47-14.03 32.84-20.08.47-.25.06-.97-.41-.72-9.5 5.06-17.57 12.35-27.1 17.4a61.16 61.16 0 0 1-15.88 5.77c-5.11 1.08-10.87 1.9-16.07.91a12.02 12.02 0 0 1-6.53-3.28c-1.7-1.8-2.6-4.15-3.07-6.55a32.35 32.35 0 0 1 1.16-16.15c1.71-5.03 5.06-9.25 8.71-13.01 3.8-3.9 7.95-7.48 12.01-11.04a475.1 475.1 0 0 1 30.53-24.64c.41-.33.02-1.05-.42-.74Z" fill="#000"/><path d="M177.52 251.69c9.08-3.51 17.3-8.76 25.1-14.5 3.85-2.82 7.64-5.75 11.4-8.67 3.7-2.9 7.25-5.97 10.13-9.7.33-.4-.39-.82-.72-.4-2.93 3.8-6.62 6.87-10.38 9.82-3.7 2.9-7.44 5.77-11.26 8.56-7.64 5.58-15.63 10.72-24.49 14.11-.5.17-.28.97.22.78Z" fill="#000"/><path d="M213.6 228.44a21.1 21.1 0 0 1 7.42 18.33c-.05.53.78.53.83 0a21.94 21.94 0 0 0-7.66-18.92c-.4-.35-.97.23-.58.59Z" fill="#000"/><path d="M220.97 239.07c1.57-.47 2.96-1.8 4.28-2.74l4.96-3.48c.44-.3.03-1.02-.42-.72l-4.5 3.18c-1.4.97-2.91 2.46-4.54 2.96-.53.13-.31.94.22.8ZM216.4 230.84c3.13-1.3 6-3.07 8.6-5.25.42-.36-.19-.94-.57-.58a31 31 0 0 1-8.22 5.03c-.5.22-.28 1.02.19.8Z" fill="#000"/><path d="M224.7 225.23c.53 0 .53-.83 0-.83-.52 0-.52.83 0 .83Z" fill="#000"/><path d="M225.7 224.24c.47-1.1.97-2.32 1.85-3.18 1.2-1.16 2.63-1 4.15-.66 2.83.63 5.6 1.52 8.36 2.32 2.57.72 5.15 1.35 7.8 1.66 1.55.16 2.85.36 4.24 1.05 1.02.5 1.9.99 3.04 1.1.53.06.53-.77 0-.83-1.52-.14-2.71-1.19-4.15-1.66-1.44-.47-3.05-.44-4.54-.69-3.26-.52-6.45-1.51-9.6-2.45-1.55-.44-3.1-.89-4.68-1.25-1.16-.25-2.38-.55-3.54-.19-2.02.6-2.99 2.76-3.73 4.56-.2.5.6.72.8.22Z" fill="#000"/><path d="M230.1 233.46c5.92-.88 11.78-1.02 17.76-1.13 2.08-.03 4.3-.28 5.95-1.63 1.41-1.16 2.21-2.84 1.83-4.64-.11-.52-.91-.3-.8.22.52 2.51-1.75 4.36-3.99 4.92-2.3.55-4.79.27-7.14.33-4.65.08-9.24.47-13.83 1.16-.53.05-.28.85.22.77Z" fill="#000"/><path d="m251.1 227.97 6.17-4.4c.14-.93.58-2.98 2.27-4.72a6.46 6.46 0 0 1 3.4-2.07c1.83-.36 3.24.47 4.82 1.19 2.54 1.16 5 1.6 9.88 2.54 3.84.72 5.78 1.08 8.55.94 3.76-.22 6.44-1.22 8.05.36.16.16.86.9.8 1.82-.08 1.16-1.33 1.9-2.32 2.49-4.35 2.48-6.78 3.2-6.78 3.2-6.14 1.8-9.24 2.7-11.9 2.93-2.16.16-5.23.24-8.94-.34-1.08 3.7-4.34 6.08-7.41 5.89-3.96-.25-7.61-4.7-6.59-9.84Z" fill="#000"/><path d="M211.36 203.55c.61-1.85 1.75-4.2 3.88-4.97a5.15 5.15 0 0 1 3.07-.05c2.57.63 7.86-.28 18.4-2.07 5.23-.89 11.84-2.18 19.45-4.12.03 1.41 0 3.26-.08 5.41-.2 4.84-.7 8.48-.8 9.34a74.1 74.1 0 0 1-3.82 16.01 61.13 61.13 0 0 1-1.72 4.23c1.08.5 2.25 1.16 3.38 2.1 4.68 3.73 6.03 9 6.48 11.24-.67.8-1.67 1.99-2.94 3.34-5.15 5.47-9.9 8.53-18.98 14.14a812.96 812.96 0 0 1-16.24 9.83c-7.97 4.7-14.42 8.34-22.44 10.63-2 .58-5.15 1.35-9.14.94-1.93-.2-5.42-.55-8.77-2.98-4.29-3.1-5.64-7.63-6.2-9.61-1.24-4.45-.77-8.62.4-12.95.8-3.04 3.7-13.12 13.8-24.47 2.02-2.26 7.77-7.37 19.23-17.6l6.56-5.79c-1.16-.88-2.33-1.74-3.52-2.6Z" fill="#fff"/><path opacity=".18" d="M249 195.9c-.64 2.44-1.66 5.94-3.21 10.06-14.14 37.39-45.74 53.54-43.17 57.57 1.88 2.99 19.92-4.44 32.93-12.26a119.47 119.47 0 0 0 21.83-16.84 19.32 19.32 0 0 0-3.76-4.15 19.36 19.36 0 0 0-4.65-2.78c.86-1.25 2-3.12 2.96-5.53.64-1.54 1.19-3.2 1.9-6.57a101.44 101.44 0 0 0 2.36-23.03c-2.4 1.16-4.79 2.35-7.2 3.53Z" fill="#9B9797"/><path d="M255.78 192.34c.02 5.22-.3 10.44-1.03 15.63-.66 4.67-1.5 9.47-3.2 13.9-1.86 4.77-5.04 8.25-8.89 11.53-3.93 3.35-7.89 6.63-11.84 9.92l-13.64 11.32c-.42.33.16.91.58.58 8.33-6.9 16.65-13.78 24.93-20.76 3.65-3.1 6.97-6.3 8.96-10.75 1.94-4.3 2.88-9.03 3.63-13.67.94-5.85 1.38-11.76 1.33-17.7 0-.55-.83-.55-.83 0ZM211.83 204.33l3.44 1.82c.47.25.88-.47.41-.72l-3.43-1.82c-.47-.25-.89.47-.42.72Z" fill="#000"/><path d="M215.27 205.82c-9.86 8-20.2 15.93-28.42 25.65-7.09 8.37-12.92 18.97-12.9 30.21 0 4.95 1.36 10.11 5.01 13.62 3.65 3.53 8.94 4.91 13.92 4.66 6.09-.3 11.87-2.7 17.3-5.35 5.8-2.85 11.31-6.22 16.85-9.56 11.4-6.9 24.13-13.34 32.68-23.86.33-.41-.25-1-.58-.58-7.17 8.84-17.25 14.5-26.85 20.3-5.28 3.2-10.51 6.46-15.9 9.5-5.3 2.98-10.8 5.82-16.64 7.51-5.48 1.57-11.6 1.9-16.77-.83-4.98-2.6-7.52-7.62-8.05-13.09-1.02-11.04 4.54-22.03 11.26-30.43 8.39-10.47 19.34-18.8 29.7-27.2.38-.3-.2-.88-.61-.55Z" fill="#000"/><path d="M249.55 227.66c5.2 2.49 8.83 7.4 9.69 13.1.08.52.88.3.8-.23a18 18 0 0 0-10.05-13.59c-.5-.22-.91.5-.44.72Z" fill="#000"/><path d="M251.21 228.38c1.1-.44 2-1.19 2.93-1.9 1.11-.86 2.25-1.69 3.35-2.55.42-.33 0-1.05-.41-.71-1 .74-2 1.49-3 2.26-.96.75-1.93 1.66-3.1 2.1-.46.2-.27 1 .23.8Z" fill="#000"/><path d="M257.9 223.6a24.85 24.85 0 0 1 2.11-4.72c1.22-2.04 3.04-1.82 5.1-1.3 3.17.8 6.22 2.02 9.43 2.74a67.44 67.44 0 0 0 18.98 1.43c.53-.03.53-.85 0-.83-7.5.5-15.05-.27-22.3-2.32-1.75-.5-3.43-1.13-5.18-1.63-1.33-.38-2.9-.82-4.29-.55-1.24.25-1.96 1.19-2.57 2.24-.86 1.5-1.52 3.1-2.07 4.72-.17.5.63.72.8.22ZM259.1 236.94c2.07-1.57 4.12-3.15 6.2-4.72.41-.33 0-1.05-.42-.72-2.07 1.57-4.12 3.15-6.2 4.72-.41.33 0 1.05.42.72Z" fill="#000"/><path d="M265.27 232.03c6.75 1.46 13.64.35 20.03-2.08 2.9-1.1 6.23-2.34 8.72-4.22 1.74-1.3 1.99-3.78-.3-4.67-.5-.2-.73.6-.23.8 1.25.47 1.39 1.82.53 2.76-.42.47-1 .78-1.55 1.1a57.75 57.75 0 0 1-11.1 4.7c-5.17 1.5-10.6 2-15.9.83-.5-.14-.73.66-.2.78Z" fill="#000"/><path d="M193.16 112.76a53.5 53.5 0 0 1 18.87-10.16c3.93-1.16 8.85-2.6 15.38-2.05 10.02.86 16.91 5.77 19.35 7.57a40.02 40.02 0 0 1 8.02 7.81c.3 19.36.72 38.75 1.24 58.1.17 5.97.34 11.96.53 17.93a54.29 54.29 0 0 1-16.4 6.76c-16.33 3.73-29.92-1.24-35.43-3.64-.03-4.9-.33-12.24-1.82-21.05-2.44-14.47-6.23-20.3-8.6-32.75a101.9 101.9 0 0 1-1.14-28.52Z" fill="#0A3871"/><path d="M243.19 117.54c-1.36 1.49-1.6 3.17-1.53 9.63.06 6.8.42 11.43.64 16.82.17 3.9.3 6.99.22 11.02-.08 5.08-.41 9.25-.72 12.04a120.69 120.69 0 0 1-6.92 7.12c-4.03 3.84-8.44 7.98-14.94 11.88a72.05 72.05 0 0 1-6.28 3.31 57.08 57.08 0 0 1-4.54-.97c-3.93-.99-5.56-1.87-8.52-1.87-.88 0-3.68 0-3.96.99-.25.83 1.3 2.13 2.52 2.76 1.14.58 1.63.42 2.77.94 1.27.6 2.1 1.5 2.6 2.16-.53.74-1.33 1.87-2.21 3.34-1.03 1.7-1.25 2.37-2.44 4.41-1.25 2.16-1.88 3.23-2.43 3.79-.86.8-1.39.96-5.23 2.68-3.82 1.7-4.49 2.1-4.49 2.56 0 .47.75.58 3.71 1.85 2.4 1.03 2.63 1.25 3.88 1.6 1.54.45 2.49.72 3.62.47a5.8 5.8 0 0 0 3.46-2.42c.25.22.86.69 1.66.71a2.5 2.5 0 0 0 1.58-.58c1.74-1.24 2.6-3.53 4.31-6.1.3-.44 1.39-2.07 3.13-3.9a26.43 26.43 0 0 1 2.8-2.59c.96-.22 2.4-.55 4.12-1.05a92.73 92.73 0 0 0 15.52-6.13c2.35-1.13 5.01-2.62 10.3-5.58 4.59-2.56 6.97-4 9.07-6.82.22-.3 1.36-1.82 2.35-4.06a26.8 26.8 0 0 0 1.97-7.45c.27-1.9.27-2.96.3-8.92l.06-7.46c-.03-11.13-.61-10.13-.8-20.35-.03-.97-.06-3.59-.86-6.9-.86-3.6-1.94-5.2-2.55-6-.77-1.02-1.71-2.23-3.32-2.92-2.93-1.3-6.83-.25-8.85 1.99Z" fill="#fff"/><path opacity=".25" d="M252.07 115.52a62.43 62.43 0 0 1 2.02 9.14c.66 4.61.91 9.7-.58 22.97-1.25 11.1-1.86 16.66-3.46 21.85-2.3 7.4-3.96 12.78-9.02 17.04-3.27 2.73-6.84 4-14 6.51a111.05 111.05 0 0 1-12.87 3.65 52.47 52.47 0 0 1-20.26 16.43 6.59 6.59 0 0 0 4.46 1.08 6.64 6.64 0 0 0 4.43-2.66c.52.4 1.3.8 2.15.67 1.78-.28 2.72-2.8 3.19-3.92 1.02-2.35 3.07-5.58 7.66-9.12 3.05-.8 7.17-2.01 11.96-3.84 6.66-2.56 11.15-5.05 15.96-7.73 7.72-4.3 9.47-6.07 10.74-7.78a24.1 24.1 0 0 0 3.7-7.74c.75-2.5.9-5.33 1.17-10.82.2-4.09.2-7.24.2-9.61 0-4.09-.1-7.13-.17-9.75-.12-3.8-.34-8.28-.89-13.64-.41-3.9-.72-5.44-1.6-7.18a15.17 15.17 0 0 0-4.8-5.55Z" fill="#9B9797"/><path d="M242.77 117.42c-1.44 3.6-1.6 7.46-1.52 11.3.08 4.22.3 8.42.5 12.65.38 8.56.66 17.14-.36 25.68-.06.52.77.52.83 0 1-8.34.77-16.76.38-25.13-.19-4.14-.41-8.28-.52-12.45-.11-4-.03-8.04 1.5-11.82.19-.5-.62-.72-.8-.23Z" fill="#000"/><path d="M243 166.33c-2.55 1.4-4.6 3.45-6.57 5.58a82.71 82.71 0 0 1-6.64 6.57 68.48 68.48 0 0 1-16.21 10.41c-.5.22-.06.94.41.72a68.56 68.56 0 0 0 22.25-16.27c2.16-2.34 4.32-4.72 7.14-6.26.5-.3.08-1.03-.39-.75Z" fill="#000"/><path d="M213.77 188.95c-3.04-.64-6.11-1.3-9.16-2-1.52-.32-3.07-.74-4.62-1.01-.97-.17-2-.25-2.85.3-1.33.86-1.33 2.43-.14 3.37.86.69 1.97 1 3 1.32 1.65.53 3.06 1.2 4.14 2.6.33.41 1.05 0 .72-.41a7.72 7.72 0 0 0-3.62-2.66c-1.03-.35-2.16-.58-3.1-1.1-.67-.36-1.52-.91-1.03-1.9.47-.94 1.66-.86 2.52-.72 2.3.33 4.6 1 6.9 1.52 2.34.52 4.7 1.02 7.05 1.52.5.08.72-.72.2-.83Z" fill="#000"/><path d="M203.48 193.67c-1.22 2.24-2.47 4.44-3.68 6.68-.61 1.08-1.14 2.24-1.86 3.29a6.71 6.71 0 0 1-2.9 2.18c-2.19 1.02-4.54 1.85-6.64 3.04-.94.55-1.55 1.54-.75 2.5 1 1.2 2.96.73 4.29.5a20.3 20.3 0 0 0 5.23-1.68 21.1 21.1 0 0 0 8.5-7.45c.3-.45-.42-.86-.73-.42a19.99 19.99 0 0 1-12 8.5c-.89.23-1.83.42-2.77.45-.86.05-1.08.17-1.5-.7-.52-.49-.47-.82.14-.99l.56-.24c1.77-.83 3.56-1.63 5.34-2.46 1.38-.64 2.73-1.19 3.68-2.43 1.1-1.47 1.88-3.2 2.76-4.8l3.05-5.53c.25-.5-.47-.91-.72-.44ZM216.12 199.72a121.18 121.18 0 0 0 21.42-8.26c3.4-1.71 6.72-3.56 9.96-5.6 2.9-1.83 5.98-3.68 8.06-6.47.3-.44-.42-.85-.72-.41-2.16 2.93-5.54 4.83-8.58 6.7a124.3 124.3 0 0 1-9.58 5.31 121.2 121.2 0 0 1-20.78 7.95c-.5.11-.28.91.22.78Z" fill="#000"/><path d="M243.32 118.17c2.3-4.5 8.2-3.48 11.1-.28 3.49 3.87 3.65 9.53 4.04 14.45.83 10.74 1 21.56.33 32.3-.33 5.23-1.1 10.75-4.6 14.89-.32.41.26 1 .59.58 3.13-3.76 4.2-8.5 4.65-13.26.58-6.07.58-12.23.52-18.33-.05-6.38-.35-12.79-.94-19.14-.44-4.77-1.3-10.05-5.25-13.22-3.38-2.71-9.02-2.63-11.18 1.6-.22.47.5.88.74.41ZM191.2 212.34c2.01.9 4.45 2.29 6.74 2.29 2.22-.03 3.85-1.85 5.34-3.23 4.3-3.98 8.58-7.96 12.87-11.9.39-.36-.2-.94-.58-.59L204.69 209c-1.6 1.47-3.26 3.57-5.28 4.48-2.38 1.07-5.65-.86-7.78-1.82-.5-.25-.9.47-.44.69Z" fill="#000"/><path d="M202.45 211.76c.92 1.7 2.94 1.02 3.96-.17 2.02-2.38 3.6-5.25 5.31-7.81.3-.45-.41-.86-.72-.42l-3.23 4.8c-.61.89-3.3 5.67-4.6 3.18-.25-.47-.96-.05-.72.42ZM196.03 210.4c.83.44 1.86.89 2.77.44.47-.24.67-.63.89-1.07.38-.75.77-1.33 1.5-1.8.43-.3.02-1.02-.42-.72-.67.45-1.22 1-1.6 1.72-.29.52-.45 1.16-1.17 1.21-.53.06-1.1-.27-1.55-.5-.44-.22-.89.47-.42.72Z" fill="#000"/><path d="M190.36 52.61a44.83 44.83 0 0 0-2.24 6.33 61.49 61.49 0 0 0-2 9.97 46.8 46.8 0 0 0-.35 9.39c.14 1.82.33 4.69 1.4 8.25.73 2.43 1.78 5.94 4.63 9.53a23.97 23.97 0 0 0 7.61 6.27c1.44.03 3.18-.06 5.12-.42a25.7 25.7 0 0 0 8.02-3 60.76 60.76 0 0 0 3.96 12.9 15.5 15.5 0 0 0 3.93-1.2 16.1 16.1 0 0 0 7.53-7.67c-.42-1.6-.75-3.35-1.06-5.14a60.3 60.3 0 0 1-.1-17.56c.58.19 1.52.44 2.68.38a7.74 7.74 0 0 0 4.6-2.04c.66-.55 3.67-3.23 3.56-7.2-.03-.95-.08-3.24-1.71-4.48-1.53-1.13-3.57-.72-5.07-.42a11.16 11.16 0 0 0-3.76 1.58c.58-1.9 1.8-6.8 0-12.48-.39-1.22-2.96-8.95-10.54-12.3-10.3-4.58-22.67 2.22-26.2 9.31Z" fill="#fff"/><path opacity=".24" d="M221.63 52.78c.22 2.57.39 6.3 0 10.71a60.2 60.2 0 0 1-7.89 25.02 57.27 57.27 0 0 1-11.45 13.73c1.71-.22 3.68-.61 5.78-1.36a29.34 29.34 0 0 0 11.76-7.84c.17 3.07.7 6.8 1.94 10.88a47.2 47.2 0 0 0 1.8 4.78c1.46-1.9 2.9-3.81 4.37-5.75a93.02 93.02 0 0 1-1.08-21.93c1.25.04 3.04-.07 4.95-.82 8.36-3.31 13.12-16.48 8.6-23.66a11.4 11.4 0 0 0-3.23-3.24c-6.34-4.25-14.39-1.02-15.55-.52Z" fill="#9B9797"/><path d="M188.34 58.11a22.06 22.06 0 0 1-.52-10.02c.25-1.39 1.1-5.83 4.15-9.34 4.45-5.1 10.04-4.14 17.3-6.74 4.58-1.63 10.9-5.05 17.29-13.11l-1.75 8.97c1 .28 4.35 1 7.78-.69 5.7-2.79 6.2-9.53 6.22-9.83a17.6 17.6 0 0 1 1.39 9.33 17.75 17.75 0 0 1-2.24 6.58c.33.36 2.1 2.18 4.15 1.9 2.49-.33 4.81-3.73 4.15-8.12.55 1.63 1.22 4.31 1.05 7.6-.22 4-1.55 7.01-2.44 8.64.22.2 1.64 1.46 3.63 1.22a4.7 4.7 0 0 0 3.82-3.29 29.09 29.09 0 0 1-1.55 7.6c-1.47 4.14-2.69 4.47-3.3 7.42-.96 4.64 1.53 6.22.86 10.36-.55 3.48-2.82 5.66-5.7 8.45a39.74 39.74 0 0 1-16.27 9.3c.22-1.54.47-3.09.7-4.64.63.4 1.74.92 3.12.86 2.82-.11 4.6-2.62 5.53-3.98 1.08-1.52 2.88-4.11 1.91-6.9a6 6 0 0 0-3.12-3.29c-2.5-1.05-5.7-.1-7.78 2.43l-3.46-13.64-11.76-7.43a22.52 22.52 0 0 0-13.14 1.55 22.44 22.44 0 0 0-10.02 8.81Z" fill="#0A3871"/><path d="M187.93 58c-2.36 8.78-3.77 18.11-1.6 27.09 1.76 7.29 6.24 15.6 13.88 17.98.5.16.72-.64.22-.8-7.66-2.38-11.95-11.02-13.53-18.31-1.85-8.56-.44-17.4 1.8-25.74.17-.5-.63-.72-.77-.22Z" fill="#000"/><path d="M200.82 102.93a30.28 30.28 0 0 0 26.4-22.98c.11-.52-.66-.74-.8-.22a29.46 29.46 0 0 1-25.6 22.37c-.52.05-.55.88 0 .83Z" fill="#000"/><path d="M226.5 80.17c5.7 3.48 11.26-3.8 11.62-8.92.2-2.7-1.05-4.77-3.73-5.55-2.5-.71-5.2.03-6.98 1.9-.36.4.22.98.59.59a6.14 6.14 0 0 1 5.8-1.8c1.11.25 2.33.86 2.97 1.85.69 1.08.6 2.57.44 3.76-.67 4.28-5.43 10.41-10.3 7.43-.44-.25-.88.47-.41.74Z" fill="#000"/><path d="M226.44 80.12a60.9 60.9 0 0 0 1.14 22.92c.14.52.94.3.8-.22-1.8-7.38-2.18-15-1.13-22.48.05-.53-.75-.75-.8-.22ZM212.14 99.03c.86 4.48 2.19 8.81 4.01 13.01.22.5.94.06.72-.41a59.2 59.2 0 0 1-3.93-12.82c-.1-.52-.88-.3-.8.22Z" fill="#000"/><path d="M216.73 112.15a15.54 15.54 0 0 0 11.87-9.53c.2-.5-.6-.71-.8-.22a14.68 14.68 0 0 1-11.29 8.95c-.52.08-.3.88.22.8ZM212.8 100c1.14.06 1.91-.72 2.77-1.38a34.82 34.82 0 0 0 3.21-2.82 19 19 0 0 0 4.32-6.4c.19-.5-.61-.72-.8-.22a17.65 17.65 0 0 1-3.8 5.71 28.2 28.2 0 0 1-2.3 2.16c-.88.74-2.15 2.18-3.4 2.12-.52-.03-.52.8 0 .83Z" fill="#000"/><path d="M212.86 99.56a47.56 47.56 0 0 0 6.58-5.17c.4-.35-.19-.96-.58-.57-1.99 1.87-4.12 3.56-6.42 5.05-.47.25-.02.96.42.69ZM196.59 59.6a113.7 113.7 0 0 0-2.63 21.4c0 .42.55.55.77.22 1.08-1.7 2.16-3.45 3.24-5.16.28-.44-.44-.88-.72-.42l-3.24 5.17.78.22c.2-7.13 1.08-14.22 2.6-21.18.11-.55-.7-.77-.8-.25ZM197.7 91.38a10.08 10.08 0 0 1-1.22-3.97c-.09-1 .14-5.03 2.02-3.43 1 .86.85 2.74.88 3.98 0 .58 0 1.19-.05 1.77-.03.41-.09.83-.17 1.21-.72.5-1.27.47-1.63-.05-.36-.39-.97.2-.58.58 1.19 1.21 2.74 1.27 3.07-.64.25-1.35.25-2.79.14-4.14-.09-1.08-.09-2.62-.89-3.45-1.19-1.22-2.88-.08-3.35 1.21-.85 2.32-.02 5.25 1.08 7.35.22.47.94.05.7-.42ZM203.42 66.53c.83 3.9 5.95 4.2 7.47.6.2-.49-.6-.7-.8-.21-1.24 2.93-5.23 2.37-5.87-.6-.1-.5-.9-.31-.8.21ZM201.79 56.95c1.05-2.35 3.76-3.48 6.25-2.96 2.58.56 4.54 2.55 5.81 4.73.28.47 1 .05.72-.42-1.46-2.51-3.79-4.75-6.78-5.19-2.68-.39-5.56.88-6.72 3.4-.22.52.5.94.72.44ZM185.57 57.86c.75-1.55 2.05-3.23 3.96-3.2 1.83.03 3.16 1.63 4.07 3.04.28.44 1 .02.72-.42-1.05-1.68-2.63-3.42-4.79-3.45-2.21-.03-3.76 1.8-4.65 3.62-.25.47.47.88.7.41ZM190.47 70.37c.5 0 .89-1.82.89-4.06 0-2.24-.4-4.06-.89-4.06s-.88 1.82-.88 4.06c0 2.24.4 4.06.88 4.06Z" fill="#000"/><path d="M193.02 114.06a83.6 83.6 0 0 0-.25 4.06 97.76 97.76 0 0 0 1.94 25c-1.11 1.26-2.77 3.13-4.9 5.34-4.04 4.23-6.12 6.38-9.44 8.62-3.7 2.48-6.28 3.26-7.66 3.62-1.75.41-3.4.8-5.43.36-3.29-.75-5.25-3.18-5.97-4.12-1.83-2.32-2.24-4.58-3-9-.55-3.23-.66-5.69-.82-10.44a151.7 151.7 0 0 1 2.02-32.4c-.47-.65-.97-1.32-1.5-2-.55-.72-1.07-1.41-1.63-2.1-1.41 1.18-2.8 2.4-4.2 3.58-.36.14-1 .36-1.78.28-1.46-.14-2.32-1.16-2.62-1.49a5.07 5.07 0 0 1-1.11-3.9c1.9-2.07 3.82-4.1 5.75-6.18a18.58 18.58 0 0 1 1.89-7.65 15.81 15.81 0 0 1 4.84-5.58c-.8.36-1 .36-1.05.3-.14-.21 1.16-1.84 2.99-2 1.02-.12 1.82.27 2.38.52.85.41 1.43.93 1.8 1.32 1.7-1.46 3.42-2.93 5.14-4.36a52.87 52.87 0 0 1 5.65 4.06 12.19 12.19 0 0 1-4.68 3.62 3.2 3.2 0 0 1 1.94 1.46c.47.88.27 1.85 0 3.06-.2.83-.45 1.5-.64 1.94a16.03 16.03 0 0 1-2.74 10.8 92.67 92.67 0 0 0 0 4.83c.22 8.53 1.47 13.53 2.27 19.82.47 3.6.94 8.92.8 15.63a28.2 28.2 0 0 0 2.58-1.93c2.6-2.18 4.26-4.36 6.44-7.57 2.16-3.12 3.57-5.44 5.48-8.53 1.2-2.02 3.1-5.08 5.5-8.97Z" fill="#fff"/><path opacity=".24" d="M167.87 88.84a121.94 121.94 0 0 0-5.95 15.33c-.25 5.74-.4 10.55-.5 14.03-.14 5.27.2 11.57.8 24.16.25 5.2.47 8.34 2.9 10.63 2.55 2.38 6.1 2.43 8.09 2.43 10.62-.02 18.56-9.05 20.75-11.68a39.59 39.59 0 0 1-8.64 10.25c-2.6 2.18-5.94 4.91-11.15 6.26-4.4 1.16-6.39.92-6.91.8-3.8-.9-5.9-4.05-6.64-5.13-1.8-2.68-2.38-5.47-2.72-11.46-.33-6.16.03-7.79.14-16.27.09-8.09-.22-10.38.39-15.98.36-3.29.8-6 1.16-7.82l-3.24-3.37c-.9.8-1.85 1.58-2.8 2.38-.6.52-1.24 1.05-1.84 1.54-.56.06-1.36.03-2.22-.33-2.21-.94-3.6-3.67-2.9-4.6.44-.64 1.6-.15 3.2-.15 2.77.03 4.63-1.38 8.3-4.03 2.6-1.9 5.6-4.03 9.78-6.99Z" fill="#9B9797"/><path d="M192.66 113.83c-6.4 8.81-11.13 18.92-19.2 26.43-.4.36.19.94.58.58 8.13-7.56 12.89-17.73 19.34-26.59.33-.42-.39-.83-.72-.42ZM168.86 161.7c10.96-.73 18.82-9.9 25.4-17.68.34-.42-.25-1-.58-.58-6.39 7.62-14.14 16.73-24.8 17.45-.54 0-.54.83-.02.8ZM163.66 83.9a4.96 4.96 0 0 0 3.6 4.67c.52.14.74-.66.22-.8a4.14 4.14 0 0 1-3-3.87c-.02-.52-.85-.52-.82 0Z" fill="#000"/><path d="M164.52 83.65c.27-2.4 4.56-.66 5.72-.05 1.14.58 2.27 1.16 2.52 2.54.2 1.05-.14 2.15-.41 3.17-.14.53.66.75.8.22.39-1.38.8-2.95.22-4.3-.55-1.38-2.07-2.02-3.32-2.63a7.55 7.55 0 0 0-4.1-.88c-.57.08-1.32.22-1.8.6-.5.4-.38.67-.46 1.36-.06.5.77.5.83-.03Z" fill="#000"/><path d="M172.07 89.15c-.08 2.1.39 4.14-.11 6.24a23.3 23.3 0 0 1-2.35 5.47c-.25.47.47.88.72.41a25.56 25.56 0 0 0 2.43-5.66c.53-2.15.06-4.28.14-6.46.03-.55-.8-.55-.83 0Z" fill="#000"/><path d="M169.6 100.88c-.63 14.56 3.55 28.8 2.89 43.36-.03.52.8.52.83 0 .66-14.55-3.52-28.8-2.88-43.36.03-.52-.8-.52-.83 0ZM156.02 101.19a28.06 28.06 0 0 0 2.71 3.28c.36.4.94-.19.59-.58-.95-.99-1.8-2.01-2.58-3.12-.33-.44-1.05-.02-.72.42Z" fill="#000"/><path d="M159.2 104.25a154.61 154.61 0 0 0-2.32 27.2c.03 4.53.25 9.09.7 13.59.35 3.84.8 7.87 2.81 11.24 1.83 3.06 5.04 5.38 8.7 5.3.52-.03.52-.86 0-.83-5.13.14-8.42-4.42-9.6-8.89-1.34-4.92-1.45-10.27-1.64-15.33-.42-10.71.33-21.48 2.18-32.03.06-.55-.74-.77-.83-.25ZM153.97 91.85c-2.6 2.19-5.12 4.48-7.5 6.88-.38.39.23.97.59.58 2.4-2.4 4.9-4.7 7.5-6.88.41-.33-.17-.9-.59-.58Z" fill="#000"/><path d="M146.23 99.48a5.17 5.17 0 0 0 5.25 5.88c.53 0 .53-.83 0-.83a4.37 4.37 0 0 1-4.42-5.05c.08-.53-.75-.53-.83 0Z" fill="#000"/><path d="M147 99.28a4.5 4.5 0 0 1 4.32 5.5c-.11.52.69.74.8.22a5.3 5.3 0 0 0-5.12-6.55c-.53 0-.53.83 0 .83Z" fill="#000"/><path d="M152.45 104.86c3.16-2.87 6.37-5.72 9.44-8.67a58.4 58.4 0 0 0 4.04-4.23c.69-.8 2.43-2.37 2.46-3.47 0-.14-.08-.3-.2-.36a.47.47 0 0 0-.13-.06c-.17-.08-.39-.08-.5.06a.36.36 0 0 0-.08.1c-.33.42.25 1 .58.59l.08-.11c-.16.02-.33.05-.5.05-.05-.25-.13-.25-.24.03-.14.2-.28.39-.45.58-.33.41-.63.83-1 1.24-.55.7-1.16 1.35-1.74 2.02a69.57 69.57 0 0 1-3.79 3.78c-2.82 2.65-5.7 5.22-8.55 7.84-.41.39.2.97.58.61ZM152.81 93.4l.58-3.98c.14-.99.25-2.1.8-2.98 1.28-2.04 3.08-.58 4.05.8.41.58.8 1.22 1.21 1.8.22.33 1.3 1.52 1.17 1.93.13-.11.27-.2.38-.3h-.14c-.52-.03-.52.8 0 .83h.14c.2 0 .36-.14.39-.3.2-.7-.28-1.11-.64-1.67-.69-1.02-1.35-2.07-2.07-3.06-.75-1.02-1.72-2.02-3.1-1.88-1.33.14-2.13 1.16-2.55 2.35-.69 1.96-.74 4.2-1.05 6.24-.05.52.75.75.83.22Z" fill="#000"/><path d="M154.11 90.28c.75 1.46 2 2.96 3.77 3.07a3.03 3.03 0 0 0 3.23-2.16c.14-.52-.66-.74-.8-.22-.36 1.33-1.83 1.82-3.04 1.4-1.17-.4-1.91-1.43-2.44-2.48-.25-.5-.97-.08-.72.39Z" fill="#000"/><path d="M155.14 84.9c.14-1.36 1.68-1.72 2.74-1.36 1.1.36 1.96 1.36 2.74 2.16.6.63 1.8 1.52 1.96 2.4.22 1.19-1.27 1.99-2.27 2.3-.5.13-.3.93.22.8 1.22-.37 3-1.44 3.18-2.88.09-.58-.27-.88-.66-1.3-.78-.83-1.52-1.63-2.32-2.43-1.08-1.1-2.47-2.29-4.13-2.01-1.24.19-2.16 1.02-2.3 2.29-.05.55.78.55.84.03Z" fill="#000"/><path d="M156.63 82.85c.39-.44.58-1.02.94-1.46.89-1.1 2.27-.08 3.18.58 1.77 1.24 3.66 3.5 2.05 5.66-.3.44.42.86.72.41 1.72-2.32.03-5-1.94-6.49-.91-.69-2.3-1.93-3.54-1.57-1.1.3-1.3 1.57-2 2.32-.35.36.23.94.59.55Z" fill="#000"/><path d="M159.43 80.34c.96-1.19 2.24-2.43 3.73-1.19 1 .8 1.63 1.93 2 3.12.16.5.93.3.8-.22-.47-1.6-1.55-3.45-3.16-4.11-1.63-.67-2.99.63-3.96 1.82-.33.39.25 1 .59.58Z" fill="#000"/><path d="M165.54 80.45c1.72-1.46 3.43-2.93 5.15-4.36.41-.36-.2-.94-.58-.58a696.9 696.9 0 0 1-5.15 4.36c-.42.36.2.94.58.58ZM171.66 83.98a47.82 47.82 0 0 0 4.67-3.83c.39-.36-.2-.94-.58-.58a47.93 47.93 0 0 1-4.5 3.7c-.45.3-.04 1.02.4.71Z" fill="#000"/><path d="M184.08 81.91a16.7 16.7 0 0 0 16.71-16.68 16.7 16.7 0 0 0-16.71-16.67 16.7 16.7 0 0 0-16.71 16.67 16.7 16.7 0 0 0 16.71 16.68Z" stroke="#000" stroke-width="3" stroke-miterlimit="10"/><path d="M173.95 67.28a305.93 305.93 0 0 1 18.85-11.1c.47-.25.05-.97-.42-.72a280.41 280.41 0 0 0-18.84 11.1c-.44.3-.03 1.02.41.72ZM174.64 74.51a426.1 426.1 0 0 1 15.42-10.74c.44-.3.03-1.02-.42-.72a495.43 495.43 0 0 0-15.41 10.74c-.44.3-.03 1.03.41.72Z" fill="#000"/></g><defs><clipPath id="a"><path fill="#fff" d="M0 0h336v304H0z"/></clipPath></defs></svg>